<svg xmlns="http://www.w3.org/2000/svg" xmlns:xlink="http://www.w3.org/1999/xlink" version="1.1" width="256" height="256" viewBox="0 0 256 256" xml:space="preserve">
<g style="stroke: none; stroke-width: 0; stroke-dasharray: none; stroke-linecap: butt; stroke-linejoin: miter; stroke-miterlimit: 10; fill: none; fill-rule: nonzero; opacity: 1;" transform="translate(1.4065934065934016 1.4065934065934016) scale(2.81 2.81)">
	<path d="M 78.804 62.716 v -42.22 c 0 -1.214 -0.473 -2.356 -1.332 -3.216 L 61.524 1.332 C 60.665 0.473 59.523 0 58.308 0 H 15.74 c -2.508 0 -4.548 2.04 -4.548 4.548 V 43.16 v 19.556 C 34.112 65.376 56.663 65.47 78.804 62.716 z" style="stroke: none; stroke-width: 1; stroke-dasharray: none; stroke-linecap: butt; stroke-linejoin: miter; stroke-miterlimit: 10; fill: rgb(220,223,225); fill-rule: nonzero; opacity: 1;" transform=" matrix(1 0 0 1 0 0) " stroke-linecap="round"/>
	<path d="M 11.192 57.716 v 16.23 v 11.506 c 0 2.508 2.04 4.548 4.548 4.548 h 58.517 c 2.508 0 4.548 -2.04 4.548 -4.548 V 57.716 H 11.192 z" style="stroke: none; stroke-width: 1; stroke-dasharray: none; stroke-linecap: butt; stroke-linejoin: miter; stroke-miterlimit: 10; fill: rgb(162,89,255); fill-rule: nonzero; opacity: 1;" transform=" matrix(1 0 0 1 0 0) " stroke-linecap="round"/>
	<polygon points="60.27,18.41 78.81,36.88 78.73,19.73 " style="stroke: none; stroke-width: 1; stroke-dasharray: none; stroke-linecap: butt; stroke-linejoin: miter; stroke-miterlimit: 10; fill: rgb(196,203,210); fill-rule: nonzero; opacity: 1;" transform="  matrix(1 0 0 1 0 0) "/>
	<path d="M 77.472 17.28 L 61.524 1.332 c -0.675 -0.676 -1.529 -1.102 -2.453 -1.258 v 15.382 c 0 2.358 1.919 4.277 4.277 4.277 H 78.73 C 78.574 18.81 78.148 17.956 77.472 17.28 z" style="stroke: none; stroke-width: 1; stroke-dasharray: none; stroke-linecap: butt; stroke-linejoin: miter; stroke-miterlimit: 10; fill: rgb(171,178,184); fill-rule: nonzero; opacity: 1;" transform=" matrix(1 0 0 1 0 0) " stroke-linecap="round"/>
	<path d="M 26.229 85.576 c -0.829 0 -1.5 -0.672 -1.5 -1.5 V 65.657 c 0 -0.828 0.671 -1.5 1.5 -1.5 h 8.166 c 0.829 0 1.5 0.672 1.5 1.5 s -0.671 1.5 -1.5 1.5 h -6.666 v 16.919 C 27.729 84.904 27.057 85.576 26.229 85.576 z" style="stroke: none; stroke-width: 1; stroke-dasharray: none; stroke-linecap: butt; stroke-linejoin: miter; stroke-miterlimit: 10; fill: rgb(255,255,255); fill-rule: nonzero; opacity: 1;" transform=" matrix(1 0 0 1 0 0) " stroke-linecap="round"/>
	<path d="M 32.569 76.366 h -5.341 c -0.829 0 -1.5 -0.672 -1.5 -1.5 s 0.671 -1.5 1.5 -1.5 h 5.341 c 0.829 0 1.5 0.672 1.5 1.5 S 33.398 76.366 32.569 76.366 z" style="stroke: none; stroke-width: 1; stroke-dasharray: none; stroke-linecap: butt; stroke-linejoin: miter; stroke-miterlimit: 10; fill: rgb(255,255,255); fill-rule: nonzero; opacity: 1;" transform=" matrix(1 0 0 1 0 0) " stroke-linecap="round"/>
	<path d="M 59.8 85.576 h -3.489 c -3.018 0 -5.472 -2.454 -5.472 -5.472 V 69.628 c 0 -3.017 2.454 -5.471 5.472 -5.471 h 4.49 c 0.828 0 1.5 0.672 1.5 1.5 s -0.672 1.5 -1.5 1.5 h -4.49 c -1.363 0 -2.472 1.108 -2.472 2.471 v 10.477 c 0 1.363 1.108 2.472 2.472 2.472 H 59.8 c 1.363 0 2.472 -1.108 2.472 -2.472 v -3.738 h -4.216 c -0.828 0 -1.5 -0.672 -1.5 -1.5 s 0.672 -1.5 1.5 -1.5 h 5.716 c 0.828 0 1.5 0.672 1.5 1.5 v 5.238 C 65.271 83.122 62.817 85.576 59.8 85.576 z" style="stroke: none; stroke-width: 1; stroke-dasharray: none; stroke-linecap: butt; stroke-linejoin: miter; stroke-miterlimit: 10; fill: rgb(255,255,255); fill-rule: nonzero; opacity: 1;" transform=" matrix(1 0 0 1 0 0) " stroke-linecap="round"/>
	<path d="M 42.613 85.576 c -0.829 0 -1.5 -0.672 -1.5 -1.5 V 65.657 c 0 -0.828 0.671 -1.5 1.5 -1.5 s 1.5 0.672 1.5 1.5 v 18.419 C 44.113 84.904 43.441 85.576 42.613 85.576 z" style="stroke: none; stroke-width: 1; stroke-dasharray: none; stroke-linecap: butt; stroke-linejoin: miter; stroke-miterlimit: 10; fill: rgb(255,255,255); fill-rule: nonzero; opacity: 1;" transform=" matrix(1 0 0 1 0 0) " stroke-linecap="round"/>
	<path d="M 29.129 47.158 c 3.241 0 5.871 -2.63 5.871 -5.871 v -5.871 h -5.871 c -3.241 0 -5.871 2.63 -5.871 5.871 C 23.259 44.528 25.889 47.158 29.129 47.158 z" style="stroke: none; stroke-width: 1; stroke-dasharray: none; stroke-linecap: butt; stroke-linejoin: miter; stroke-miterlimit: 10; fill: rgb(10,207,131); fill-rule: nonzero; opacity: 1;" transform=" matrix(1 0 0 1 0 0) " stroke-linecap="round"/>
	<path d="M 23.259 29.546 c 0 -3.241 2.63 -5.871 5.871 -5.871 H 35 v 11.741 h -5.871 C 25.889 35.417 23.259 32.787 23.259 29.546 z" style="stroke: none; stroke-width: 1; stroke-dasharray: none; stroke-linecap: butt; stroke-linejoin: miter; stroke-miterlimit: 10; fill: rgb(162,89,255); fill-rule: nonzero; opacity: 1;" transform=" matrix(1 0 0 1 0 0) " stroke-linecap="round"/>
	<path d="M 23.259 17.805 c 0 -3.241 2.63 -5.871 5.871 -5.871 H 35 v 11.741 h -5.871 C 25.889 23.675 23.259 21.045 23.259 17.805 z" style="stroke: none; stroke-width: 1; stroke-dasharray: none; stroke-linecap: butt; stroke-linejoin: miter; stroke-miterlimit: 10; fill: rgb(242,78,30); fill-rule: nonzero; opacity: 1;" transform=" matrix(1 0 0 1 0 0) " stroke-linecap="round"/>
	<path d="M 35 11.934 h 5.871 c 3.241 0 5.871 2.63 5.871 5.871 s -2.63 5.871 -5.871 5.871 H 35 V 11.934 z" style="stroke: none; stroke-width: 1; stroke-dasharray: none; stroke-linecap: butt; stroke-linejoin: miter; stroke-miterlimit: 10; fill: rgb(255,114,98); fill-rule: nonzero; opacity: 1;" transform=" matrix(1 0 0 1 0 0) " stroke-linecap="round"/>
	<path d="M 46.741 29.546 c 0 3.241 -2.63 5.871 -5.871 5.871 S 35 32.787 35 29.546 s 2.63 -5.871 5.871 -5.871 S 46.741 26.306 46.741 29.546 z" style="stroke: none; stroke-width: 1; stroke-dasharray: none; stroke-linecap: butt; stroke-linejoin: miter; stroke-miterlimit: 10; fill: rgb(26,188,254); fill-rule: nonzero; opacity: 1;" transform=" matrix(1 0 0 1 0 0) " stroke-linecap="round"/>
</g>
</svg>